<?xml version="1.0" encoding="UTF-8"?><svg id="Layer_1" xmlns="http://www.w3.org/2000/svg" width="497.89" height="352.98" viewBox="0 0 497.89 352.98"><defs><style>.cls-1{fill:#a5ffc9;}.cls-2{fill:#213038;}</style></defs><g><path class="cls-2" d="M248.61,130.84c-31.79-.07-58.08-26.25-57.88-57.63,.2-31.41,26.16-56.88,58-57.02L248.7,0c-40.86,.13-73.93,33.1-73.86,73.63,.07,40.51,33.41,73.44,74.19,73.27l-.04-16.06"/><path class="cls-2" d="M101.54,54.25c31.57,.03,57.69,26.03,57.6,57.32-.09,31.32-26.28,57.15-57.86,57.06-31.68-.08-57.52-25.85-57.48-57.33,.04-31.41,26.03-57.09,57.75-57.06Zm-.17,98.18c23.08,0,41.58-18.21,41.59-40.95,.01-22.77-18.45-41.02-41.5-41.03-22.99,0-41.65,18.31-41.7,40.94-.05,22.57,18.67,41.03,41.61,41.04Z"/><path class="cls-2" d="M212.36,178.11c12.14-3.91,24.42-5.79,36.49-5.84v-15.91c-34.27-.03-68.45,12.53-94.32,37.33-13.61-9.11-28.61-14.51-44.92-16.8C58.23,169.68,6.27,209.57,1.04,261.06c-1.35,13.31-1.06,26.82-.9,40.23,.11,9.71,7.94,17.71,17.57,19.07,2.23,.32,4.51,.38,6.77,.38,27.51,.02,55.02,.02,82.53,.02h6.23c.11,1.69,.27,3.08,.29,4.47,.26,17.01,11.03,27.68,28.2,27.74,.65,0,1.31,0,1.96,0,.36,0,.71,.01,1.07,.01,4.32,0,8.64,0,12.97,0,16.35,.01,32.7,0,49.05,0,14.02,0,28.04,0,42.06,0v-16.19c-25.42,0-50.85,0-76.27,0-10.02,0-20.05,0-30.07,0-9.11-.09-12.54-3.68-12.46-12.95,.11-13.58-.37-27.19,.45-40.73,2.96-48.88,35.22-89.96,81.87-104.99Zm-93.38,74.24c-5.15,16.92-5.83,34.29-5.38,52.35-8.22,0-15.65,0-23.08,0-22.49,0-44.98-.02-67.47,.02-3.58,0-6.89-.62-6.88-4.92,.05-12.61-.98-25.43,.92-37.78,7.28-47.24,51.3-77.35,98.18-67.91,10.12,2.04,19.64,5.73,28.27,11.86-11.31,14.16-19.42,29.46-24.57,46.38Z"/></g><g><path class="cls-1" d="M249.33,16.18c31.93,.07,57.94,25.96,57.83,57.56-.11,31.34-26.18,56.96-57.97,57.09l.04,16.07c40.94-.16,74.04-33.14,73.89-73.6C322.95,32.75,289.67-.13,248.89,0l.04,16.18"/><path class="cls-1" d="M459.71,108c-.15,31.1-26.22,56.73-57.65,56.7-31.56-.03-57.73-26-57.7-57.25,.03-31.5,26.37-57.33,58.25-57.13,31.64,.2,57.25,26.08,57.1,57.68Zm-57.62-41.51c-23.06,0-41.54,18.25-41.55,41,0,22.72,18.51,40.99,41.56,41,22.95,.01,41.67-18.42,41.64-41.01-.03-22.66-18.66-41-41.65-40.99Z"/><path class="cls-1" d="M496.85,261.06c-5.23-51.49-57.18-91.38-108.57-84.16-16.31,2.29-31.31,7.69-44.92,16.8-25.88-24.8-60.06-37.36-94.32-37.33v15.91c12.06,.04,24.34,1.92,36.49,5.84,46.65,15.03,78.9,56.11,81.87,104.99,.82,13.54,.34,27.15,.45,40.73,.08,9.27-3.35,12.86-12.46,12.95-10.02,0-20.05,0-30.07,0-25.42,0-50.85,0-76.27,0v16.19c14.02,0,28.04,0,42.06,0,16.35,0,32.7,.01,49.05,0,4.32,0,8.64,0,12.97,0,.36,0,.72,0,1.07-.01,.65,0,1.31,0,1.96,0,17.16-.05,27.94-10.73,28.2-27.74,.02-1.39,.18-2.78,.29-4.47h6.23c27.51,0,55.02,0,82.53-.02,2.26,0,4.54-.06,6.77-.38,9.63-1.37,17.46-9.37,17.57-19.07,.16-13.41,.45-26.92-.9-40.23Zm-15.13,38.75c.02,4.3-3.29,4.92-6.88,4.92-22.49-.04-44.98-.02-67.47-.02-7.43,0-14.86,0-23.08,0,.45-18.07-.22-35.43-5.38-52.35-5.15-16.92-13.26-32.22-24.57-46.38,8.63-6.13,18.16-9.82,28.27-11.86,46.87-9.44,90.9,20.67,98.18,67.91,1.9,12.35,.88,25.18,.92,37.78Z"/></g></svg>