<?xml version="1.0" encoding="UTF-8"?><svg id="Layer_1" xmlns="http://www.w3.org/2000/svg" width="383.17" height="383.3" viewBox="0 0 383.17 383.3"><defs><style>.cls-1{fill:#a5ffc9;}.cls-2{fill:#213038;}</style></defs><path class="cls-1" d="M189.37,17.92V.06c52.64-1.26,99.28,18.2,139.24,58.04,29.8,29.72,46.91,66.19,52.86,107.86,.65,4.55,1.13,9.12,1.69,13.68v23.96c-.56,4.56-1.05,9.13-1.69,13.67-5.46,38.56-20.92,72.58-46.88,101.6-29.49,32.96-66.1,53.56-109.7,61.44-7.08,1.28-14.26,2-21.39,2.98h-12.14l-.17-17.97c95.72,.21,173.94-77.81,174.01-173.56,.07-95.64-77.76-173.69-173.34-173.84h-2.48Z"/><path class="cls-2" d="M191.43,383.3h-11.82c-7.01-.98-14.06-1.73-21.03-2.96-43.68-7.72-80.3-28.33-109.86-61.24C22.7,290.13,6.7,256.16,1.77,217.51c-7.16-56.13,7.37-106.35,43.84-149.7C73.67,34.46,109.25,12.62,152.05,4.24,164.83,1.74,177.3,.35,189.45,.06l2.48-.06V17.92c-95.78-.16-173.95,77.81-174,173.55-.06,95.64,77.72,173.65,173.34,173.85l.17,17.97Z"/><path class="cls-1" d="M191.37,276.98c31.43,0,62.86,0,94.28,0,6.8,0,9-2.18,9-8.92,0-25.2,0-50.4,0-75.61v-3.95c-1.48,.5-2.54,.8-3.55,1.2-31.29,12.31-62.58,24.58-93.83,36.99-1.98,.78-3.85,1.22-5.73,1.25l-.35-18.88c.86,.03,1.72-.09,2.43-.37,32.93-12.86,65.81-25.84,98.73-38.72,1.85-.72,2.38-1.69,2.35-3.56-.11-5.49-.04-10.98-.04-16.46,0-7.76-1.9-9.65-9.76-9.66-31.05,0-62.1,0-93.15,0-.18,0-.37,0-.55,0v-18.2h30.52v-15.59h-30.52v-18.22c10.24,0,20.48,.01,30.71,.04,10.88,.03,17.94,7.2,18.03,18.14,.04,5.1,0,10.19,0,15.65,1.58,.08,2.9,.2,4.22,.21,13.85,.01,27.7-.01,41.55,.02,16.85,.03,26.92,10.18,26.92,27.1,0,39.56,0,79.11,0,118.67,0,16.62-10.19,26.84-26.81,26.84-31.54,0-63.08,.01-94.62,.01l.18-17.97Z"/><path class="cls-2" d="M191.79,227.94c-1.88,.04-3.77-.33-5.78-1.13-23.01-9.2-46.09-18.22-69.14-27.3-9.35-3.68-18.71-7.34-28.58-11.21,0,1.74,0,2.94,0,4.15,0,25.2,0,50.4,0,75.61,0,6.74,2.19,8.92,9,8.92,31.44,0,62.89,0,94.33,0l-.18,17.97c-31.47,0-62.93,0-94.4-.01-16.39,0-26.7-10.28-26.71-26.57-.01-39.81-.01-79.61,0-119.42,0-16.36,10.21-26.57,26.65-26.62,13.72-.04,27.45,0,41.17,0,1.47,0,2.94,0,4.86,0,0-5.76-.03-10.86,0-15.97,.09-10.88,7.2-18.01,18.12-18.04,10.1-.02,20.2-.04,30.3-.04v18.22h-30.25v15.59h30.25v18.2c-31.12,0-62.23,0-93.35,0-7.89,0-9.79,1.88-9.79,9.61,0,5.36,.1,10.73-.05,16.09-.06,2.17,.58,3.25,2.69,4.07,32.81,12.83,65.57,25.77,98.38,38.59,.62,.24,1.37,.38,2.12,.4"/></svg>