<?xml version="1.0" encoding="UTF-8"?><svg id="Layer_1" xmlns="http://www.w3.org/2000/svg" width="338.57" height="386.32" viewBox="0 0 338.57 386.32"><defs><style>.cls-1{fill:#a5ffc9;}.cls-2{fill:#213038;}</style></defs><g><path class="cls-1" d="M338.41,257.99c-.08-13.39-10.33-24.76-23.35-25.9-8.55-.75-17.29-.62-25.74-.48-1.82,.03-3.63,.06-5.44,.08-2.03,.02-3.9,.82-5.29,2.25-1.45,1.49-2.25,3.57-2.21,5.7,.08,4.2,3.15,7.27,7.64,7.63,.93,.08,1.86,.07,2.75,.06h.74c2.44,0,4.89,0,7.33-.02,5.2-.02,10.58-.04,15.85,.05,7.13,.12,11.94,4.6,11.96,11.13,.02,4.75,.04,9.51,.06,14.26,.11,22.56,.22,45.88-.17,68.8-.14,8.45-4.04,16.44-10.69,21.92-6.96,5.73-16.03,8.1-24.88,6.53-15.22-2.71-25.08-15.01-25.11-31.35-.04-20.55-.04-41.46-.03-61.67,0-11.14,0-22.27,0-33.41v-.21c0-1.48,0-3.01-.29-4.54-.75-3.9-3.98-6.51-7.9-6.41-3.84,.13-6.9,2.96-7.45,6.89-.15,1.09-.15,2.16-.15,3.19,0,10.26,0,20.53,0,30.79,0,21.93,.01,43.85-.03,65.78-.02,10.54,2.98,20.03,8.92,28.2,.79,1.1,1.63,2.13,2.57,3.29h-56.95c-50.89,0-101.77,0-152.66,0-19.21,0-32.12-12.92-32.12-32.14,0-42.98,0-85.95-.01-128.93v-1.5H0v1.5c0,49.6,.04,91.06,.11,130.48,.03,18.82,9.26,33.3,26.68,41.87,2.9,1.43,6.05,2.33,9.1,3.19,1.36,.39,2.76,.79,4.11,1.22l.23,.07H298.28l.22-.07c.27-.08,.54-.18,.81-.27,.51-.18,1-.35,1.46-.44,21.58-4.22,37.4-22.59,37.62-43.69,.31-28.93,.18-58.46,.03-83.87Z"/><path class="cls-1" d="M65.34,252.99c10.25,.01,20.49,.01,30.74,.01,5.4,0,10.8,0,16.2,0h29.88c17.66,0,35.33,0,52.99,0h.61c1.23,0,2.5,.02,3.78-.25,3.78-.78,6.5-4.21,6.34-7.99-.17-3.97-3.27-7.11-7.38-7.46-.91-.08-1.81-.07-2.67-.06h-.82c-42.77,0-85.54,0-128.31,0-.28,0-.56,0-.84,0-1-.01-2.04-.03-3.09,.11-4.1,.53-6.86,3.83-6.72,8.03,.16,4.76,3.63,7.61,9.28,7.61Z"/><path class="cls-1" d="M62.85,319.84c1.29,.17,2.57,.18,3.82,.17h.49c21.32,0,42.64,0,63.96,0h18.55c5.01,0,10.02,0,15.03,0,10.75,0,21.5,0,32.25-.03,5.28-.01,8.79-3,8.93-7.61,.15-4.67-3.42-7.94-8.88-8.15-.47-.02-.94-.02-1.41-.01h-16.55c-37.42,0-74.84,0-112.26,.01h-.13c-1.38,.01-2.81,0-4.24,.28-3.95,.76-6.45,3.85-6.35,7.87,.1,4,2.76,6.93,6.8,7.48Z"/></g><g><path class="cls-2" d="M246.05,27.03c.79,5.28,4.18,8.36,8.68,7.85,4.7-.54,7.43-4.41,6.95-9.85C260.38,10.31,248.86,.03,233.67,.02,162.64,0,93.49,0,28.14,.02,11.6,.03,.04,11.6,.04,28.17l-.02,59C0,127.94,0,168.71,0,209.49v1.5H15.78v-1.5c0-54.73,0-109.47,0-164.2V28.86c0-8.69,4.38-13.09,13.02-13.1,68.01,0,136.02,0,204.03,0,8.09,0,12.04,3.37,13.21,11.26Z"/><path class="cls-2" d="M252.13,43.6h-.04c-42.5,.02-77.15,34.62-77.23,77.12-.04,20.54,8.01,39.92,22.68,54.58,14.66,14.65,34.04,22.71,54.59,22.71h.19c42.51-.1,77.03-34.8,76.95-77.34-.08-42.5-34.68-77.06-77.13-77.06Zm62.6,77.4c-.1,34.47-28.18,62.49-62.61,62.49h-.06c-16.73-.02-32.51-6.64-44.42-18.64-11.86-11.95-18.34-27.68-18.23-44.27,.22-34.49,28.38-62.45,62.83-62.45,.08,0,.17,0,.26,0,34.42,.14,62.33,28.35,62.23,62.88Z"/><path class="cls-2" d="M64.75,109.24c8.59,.03,17.36,.04,26.25,.04s17.33-.01,26.11-.04c2.84,0,5.18-.87,6.75-2.5,1.41-1.45,2.11-3.42,2.04-5.68-.14-4.7-3.46-7.52-8.88-7.54-6.1-.03-12.2-.02-18.3-.02h-7.51c-2.63,0-5.27,0-7.91,0-6.11,0-12.44-.02-18.66,.02-5.26,.03-8.64,3.12-8.61,7.87,.03,4.75,3.44,7.84,8.7,7.85Z"/><path class="cls-2" d="M116.92,165.38c-6.07-.03-12.14-.02-18.21-.02h-7.6s-7.63,0-7.63,0c-6.06,0-12.12,0-18.18,.01-3.22,.01-5.67,.85-7.28,2.51-1.34,1.37-2.02,3.27-1.97,5.5,.1,4.83,3.53,7.72,9.18,7.73,8.92,.02,17.52,.02,25.92,.02s17.27,0,25.7-.03c5.57-.01,9.04-3.03,9.07-7.87,.01-2.2-.69-4.08-2.03-5.43-1.58-1.6-3.93-2.42-6.97-2.43Z"/><path class="cls-2" d="M252.3,95.67c.84,0,3.4,0,3.4,8,0,1.65,1.35,3,3,3h8.9c1.65,0,3-1.35,3-3,0-1.44-.15-6.53-2.06-11.53-1.83-4.8-4.8-8.1-8.63-9.62v-6.43c0-1.38-1.12-2.5-2.5-2.5h-9.85c-1.38,0-2.5,1.12-2.5,2.5v5.97c-7.43,2.48-11.67,9.41-11.67,19.21s7.2,17.54,13.56,23.99c4.5,4.56,8.74,8.87,8.74,12.81,0,6-2.86,6-3.8,6-3.52,0-3.7-8.08-3.7-9.7s-1.35-3-3-3h-8.9c-1.65,0-3,1.35-3,3,0,12.08,4.28,20.45,11.8,23.18v6.82c0,1.38,1.12,2.5,2.5,2.5h9.85c1.38,0,2.5-1.12,2.5-2.5v-6.91s0-.1,0-.14c9.24-3.75,10.66-13.59,10.66-19.25,0-9.99-7.1-17.21-13.37-23.57-4.59-4.67-8.93-9.08-8.93-13.23,0-4.96,2.14-5.6,4-5.6Z"/></g></svg>