<?xml version="1.0" encoding="UTF-8"?><svg id="Layer_1" xmlns="http://www.w3.org/2000/svg" width="664.49" height="481.28" viewBox="0 0 664.49 481.28"><defs><style>.cls-1{fill:#a5ffc9;}.cls-2{fill:#213038;}.cls-3{fill:none;stroke:#000;stroke-miterlimit:10;stroke-width:.25px;}</style></defs><path class="cls-3" d="M664.3,.14c.06,0,.12,0,.17-.01"/><g><path class="cls-2" d="M0,481.28c0-3.49,0-6.99,0-10.48,3.24-9.64,6.39-19.31,9.73-28.92,7.47-21.53,15.2-42.92,26.02-63.11,10.53-19.65,33.54-29.07,54.77-23.74,8.84,2.22,16.65,6.74,22.8,12.84l-11.93,10.84c-5.47-5.22-12.6-8.6-20.08-9.01-14.82-.81-25.76,5.34-32.62,18.54-11.98,23.05-20.05,47.64-28.58,72.84L0,481.28Z"/><path class="cls-1" d="M20.1,461.07c1.3-.38,1.88-.51,2.44-.71,14.4-5.15,28.96-9.93,43.15-15.6,10.83-4.33,21.56-9.16,31.66-14.95,11.88-6.81,16.9-21.86,13.28-35.62-1.57-5.95-4.87-11.3-9.25-15.48l11.93-10.84c8.93,8.86,14.36,21.05,14.37,34.38,0,18.56-7.81,33.23-24.22,42.68-16.15,9.3-33.5,15.91-51.01,22.06-13.03,4.58-26.21,8.73-39.32,13.1-.92,.3-1.77,.79-2.65,1.19H0s20.1-20.21,20.1-20.21Z"/><path class="cls-2" d="M98.6,291.35c7.82-8.77,15.91-17.91,24.07-26.99,19.99-22.27,39.22-45.29,60.17-66.61,40.16-40.88,88.8-67.1,144.93-78.9,12.85-2.7,26.09-3.6,39.95-5.44l13.14-13.11c-1.62-1.35-4.01-1.94-7.34-1.96-20.82-.11-41.3,2.62-61.4,7.9-57.08,15-106.25,43.53-146.82,86.54-2.6,2.75-5.21,3.92-8.96,4.22-9.31,.73-18.67,1.48-27.83,3.21-40.56,7.67-75.53,26.18-105.07,55.01-2.56,2.5-3.71,5.36-2.69,8.78,1.04,3.46,3.7,5.19,7.19,5.69,12.58,1.79,25.17,3.56,37.75,5.36,7.44,1.06,14.88,2.17,22.96,3.35-2.22,2.5-3.92,4.45-5.65,6.39-5.33,5.95-5.26,9.37,.36,15,16.33,16.33,32.66,32.67,49,49l11.82-11.79c-15.18-15.19-30.37-30.37-45.6-45.6Zm.51-27.78c-17.04-2.27-34.05-4.79-51.07-7.26-.33-.05-.64-.2-.99-.32,15.16-18.14,69.63-41.37,99.17-42.13-1.11,1.28-1.96,2.29-2.85,3.28-13.2,14.79-26.36,29.62-39.66,44.32-1.06,1.17-3.16,2.29-4.6,2.1Z"/><path class="cls-1" d="M227.83,456.98c4.5-5.01,9.18-9.88,13.34-15.16,26.58-33.82,41.3-72.21,43.58-115.22,.24-4.51,1.56-7.74,4.98-10.91,26.17-24.25,46.87-52.66,62.86-84.47,19.4-38.61,31.01-79.26,30.86-122.82-.01-3.93-.81-6.57-2.64-8.18l-13.27,13c-.27,5.58-.25,10.03-.73,14.42-7.8,71.49-39.28,131.04-91.58,179.77-21.98,20.48-44.79,40.09-67.22,60.09-5.95,5.3-11.9,10.6-17.59,15.67-15.49-15.49-30.94-30.95-46.4-46.4l-11.82,11.79c6.43,6.43,12.86,12.85,19.28,19.28,9.88,9.88,19.76,19.76,29.64,29.64,6.75,6.75,9.64,6.84,16.63,.56,1.66-1.49,3.34-2.95,5.4-4.76,.32,.89,.5,1.21,.55,1.54,2.74,19,5.55,37.98,8.13,57,.57,4.18,1.75,7.51,6.13,8.84,4.21,1.28,7.25-.77,9.87-3.68Zm-2.24-22.02c-2.55-17.68-5.09-34.93-7.44-52.2-.18-1.31,.52-3.26,1.5-4.14,15.54-14.04,31.2-27.96,46.83-41.89,.35-.31,.78-.54,1.26-.86,.84,25.53-22.65,80.93-42.15,99.1Z"/><path class="cls-2" d="M290.18,190.32c-4.22-4.01-9.93-6.48-16.29-6.55-13.35-.15-24.08,10.45-24.12,23.83-.02,6.46,2.47,12.28,6.56,16.57l-11.12,11.42c-7.2-7.32-11.62-17.35-11.5-28.3,.25-21.89,18.19-39.64,40.02-39.59,10.74,.03,20.53,4.36,27.72,11.34l-11.27,11.27Z"/><path class="cls-1" d="M256.33,224.17c4.28,4.48,10.32,7.28,17.09,7.35,13.38,.14,24.09-10.44,24.12-23.83,.02-6.88-2.79-13.03-7.36-17.37l11.27-11.27c7.53,7.31,12.21,17.53,12.14,28.77-.12,22-18.28,39.97-40.2,39.78-11-.09-20.98-4.69-28.18-12.01l11.12-11.42Z"/></g></svg>